<?xml version="1.0" encoding="UTF-8"?>
<!DOCTYPE svg PUBLIC "-//W3C//DTD SVG 1.1//EN" "http://www.w3.org/Graphics/SVG/1.1/DTD/svg11.dtd">
<!-- Creator: CorelDRAW 2020 (64-Bit) -->
<svg xmlns="http://www.w3.org/2000/svg" xml:space="preserve" width="2.88889in" height="4.16666in" version="1.1" style="shape-rendering:geometricPrecision; text-rendering:geometricPrecision; image-rendering:optimizeQuality; fill-rule:evenodd; clip-rule:evenodd"
viewBox="0 0 2888.89 4166.66"
 xmlns:xlink="http://www.w3.org/1999/xlink"
 xmlns:xodm="http://www.corel.com/coreldraw/odm/2003">
 <defs>
  <style type="text/css">
   <![CDATA[
    .fil0 {fill:black;fill-rule:nonzero}
   ]]>
  </style>
 </defs>
 <g id="Layer_x0020_1">
  <metadata id="CorelCorpID_0Corel-Layer"/>
  <path class="fil0" d="M1446.02 -0c-798.6,0 -1446.02,647.39 -1446.02,1446.02 0,137.24 19.54,269.83 55.26,395.62 22,77.44 46.05,154.36 84.02,223.91 296.52,542.87 1306.72,2101.13 1306.72,2101.13 0,0 1010.26,-1558.28 1306.76,-2101.17 37.99,-69.51 62.02,-146.43 84.02,-223.86 35.69,-125.79 55.26,-258.39 55.26,-395.62 0,-798.63 -647.42,-1446.02 -1446.03,-1446.02zm0 2082.71c-201.67,0 -381.6,-94.33 -498.35,-241.07 -86.5,-108.74 -138.39,-246.2 -138.39,-395.62 0,-351.1 285.64,-636.72 636.74,-636.72 351.11,0 636.7,285.63 636.7,636.72 0,149.42 -51.86,286.89 -138.36,395.62 -116.76,146.74 -296.68,241.07 -498.35,241.07z"/>
 </g>
</svg>
