<?xml version="1.0" encoding="UTF-8"?>
<!DOCTYPE svg PUBLIC "-//W3C//DTD SVG 1.1//EN" "http://www.w3.org/Graphics/SVG/1.1/DTD/svg11.dtd">
<!-- Creator: CorelDRAW 2020 (64-Bit) -->
<svg xmlns="http://www.w3.org/2000/svg" xml:space="preserve" width="510px" height="510px" version="1.1" style="shape-rendering:geometricPrecision; text-rendering:geometricPrecision; image-rendering:optimizeQuality; fill-rule:evenodd; clip-rule:evenodd"
viewBox="0 0 51000 51000"
 xmlns:xlink="http://www.w3.org/1999/xlink"
 xmlns:xodm="http://www.corel.com/coreldraw/odm/2003">
 <defs>
  <style type="text/css">
   <![CDATA[
    .fil0 {fill:black}
   ]]>
  </style>
 </defs>
 <g id="Layer_x0020_1">
  <metadata id="CorelCorpID_0Corel-Layer"/>
  <path class="fil0" d="M44115 500l-37230 0c-3519,0 -6385,2876 -6385,6385l0 37230c0,3519 2866,6385 6385,6385l37230 0c3509,0 6385,-2866 6385,-6385l0 -37230c0,-3509 -2876,-6385 -6385,-6385zm-37393 37383l0 -24755 16105 0 0 4182 -11699 0 0 5498 10873 0 0 4182 -10873 0 0 6711 12118 0 0 4183 -16525 0 0 0 1 -1zm20267 0l0 -24755 4254 0 8956 16585 0 -16585 4069 0 0 24755 -4396 0 -8813 -16269 0 16269 -4070 0 0 0z"/>
 </g>
</svg>
