<?xml version="1.0" encoding="UTF-8"?>
<!DOCTYPE svg PUBLIC "-//W3C//DTD SVG 1.1//EN" "http://www.w3.org/Graphics/SVG/1.1/DTD/svg11.dtd">
<!-- Creator: CorelDRAW 2020 (64-Bit) -->
<svg xmlns="http://www.w3.org/2000/svg" xml:space="preserve" width="510px" height="510px" version="1.1" style="shape-rendering:geometricPrecision; text-rendering:geometricPrecision; image-rendering:optimizeQuality; fill-rule:evenodd; clip-rule:evenodd"
viewBox="0 0 51000 51000"
 xmlns:xlink="http://www.w3.org/1999/xlink"
 xmlns:xodm="http://www.corel.com/coreldraw/odm/2003">
 <defs>
  <style type="text/css">
   <![CDATA[
    .fil0 {fill:black}
   ]]>
  </style>
 </defs>
 <g id="Layer_x0020_1">
  <metadata id="CorelCorpID_0Corel-Layer"/>
  <path class="fil0" d="M44115 500l-37230 0c-3512,0 -6385,2873 -6385,6385l0 37230c0,3512 2873,6385 6385,6385l37230 0c3512,0 6385,-2873 6385,-6385l0 -37230c0,-3512 -2873,-6385 -6385,-6385zm-38223 37151l0 -24751 9248 0c2324,0 4015,225 5068,668 1058,444 1898,1233 2531,2368 632,1141 951,2437 951,3901 0,1860 -475,3393 -1432,4603 -957,1210 -2385,1970 -4288,2287 947,628 1726,1319 2339,2074 617,755 1448,2097 2491,4022l2652 4828 -5250 0 -3148 -5405c-1129,-1918 -1903,-3128 -2324,-3629 -415,-496 -855,-841 -1321,-1026 -471,-184 -1210,-276 -2222,-276l-891 0 0 10336 -4404 0 0 0zm4404 -14277l3250 0c2106,0 3417,-104 3943,-305 522,-202 937,-553 1230,-1049 299,-495 446,-1118 446,-1861 0,-835 -198,-1503 -587,-2022 -390,-513 -942,-835 -1651,-968 -359,-57 -1427,-86 -3204,-86l-3427 0 0 6291 0 0zm17530 -10474l4404 0 0 13412c0,2132 56,3509 162,4137 187,1014 628,1832 1326,2443 704,616 1661,922 2875,922 1231,0 2162,-288 2790,-870 628,-582 1002,-1291 1129,-2138 126,-847 192,-2247 192,-4206l0 -13700 4404 0 0 13015c0,2973 -116,5075 -354,6303 -238,1227 -674,2264 -1311,3111 -633,847 -1484,1515 -2547,2016 -1068,502 -2455,755 -4171,755 -2070,0 -3639,-271 -4708,-818 -1068,-547 -1913,-1256 -2536,-2132 -623,-876 -1027,-1786 -1225,-2748 -288,-1417 -430,-3514 -430,-6286l0 -13216 0 0z"/>
 </g>
</svg>
