<?xml version="1.0" encoding="UTF-8"?>
<!DOCTYPE svg PUBLIC "-//W3C//DTD SVG 1.1//EN" "http://www.w3.org/Graphics/SVG/1.1/DTD/svg11.dtd">
<!-- Creator: CorelDRAW 2020 (64-Bit) -->
<svg xmlns="http://www.w3.org/2000/svg" xml:space="preserve" width="500px" height="500px" version="1.1" style="shape-rendering:geometricPrecision; text-rendering:geometricPrecision; image-rendering:optimizeQuality; fill-rule:evenodd; clip-rule:evenodd"
viewBox="0 0 50000 50000"
 xmlns:xlink="http://www.w3.org/1999/xlink"
 xmlns:xodm="http://www.corel.com/coreldraw/odm/2003">
 <defs>
  <style type="text/css">
   <![CDATA[
    .fil0 {fill:black}
   ]]>
  </style>
 </defs>
 <g id="Layer_x0020_1">
  <metadata id="CorelCorpID_0Corel-Layer"/>
  <path class="fil0" d="M43615 0l-37230 0c-3512,0 -6385,2873 -6385,6385l0 37230c0,3512 2873,6385 6385,6385l37230 0c3512,0 6385,-2873 6385,-6385l0 -37230c0,-3512 -2873,-6385 -6385,-6385zm-36459 37375l0 -24750 7041 0c2668,0 4404,121 5214,368 1246,375 2289,1181 3129,2426 840,1244 1260,2852 1260,4822 0,1521 -243,2794 -723,3831 -486,1037 -1099,1850 -1843,2443 -744,588 -1504,980 -2273,1170 -1048,236 -2561,357 -4546,357l-2855 0 0 9333 -4404 0 0 0zm4404 -20568l0 7052 2395 0c1726,0 2875,-132 3457,-392 582,-259 1038,-662 1367,-1221 329,-553 496,-1193 496,-1930 0,-905 -233,-1648 -694,-2235 -465,-588 -1047,-957 -1761,-1106 -522,-110 -1569,-168 -3149,-168l-2111 0 0 0zm15976 20568l0 -24543 4404 0 0 20361 10904 0 0 4182 -15308 0z"/>
 </g>
</svg>
